<?xml version="1.0" encoding="UTF-8"?>
<svg xmlns="http://www.w3.org/2000/svg" xmlns:xlink="http://www.w3.org/1999/xlink" viewBox="0 0 48 48" width="48px" height="48px">
<g id="surface32914759">
<path style=" stroke:none;fill-rule:evenodd;fill:rgb(9.803922%,44.313726%,76.078433%);fill-opacity:1;" d="M 22 3 C 20.34375 3 19 4.34375 19 6 C 19 7.65625 20.34375 9 22 9 C 23.65625 9 25 7.65625 25 6 C 25 4.34375 23.65625 3 22 3 Z M 22.003906 11.5 C 20.347656 11.5 19.007812 12.84375 19.007812 14.5 C 19.007812 16.15625 20.347656 17.5 22.003906 17.5 C 23.660156 17.5 25 16.15625 25 14.5 C 25 12.84375 23.660156 11.5 22.003906 11.5 Z M 31.496094 20.5 C 29.566406 20.5 28 22.066406 28 24 C 28 25.933594 29.566406 27.5 31.496094 27.5 C 33.425781 27.5 34.988281 25.933594 34.988281 24 C 34.988281 22.066406 33.425781 20.5 31.496094 20.5 Z M 42.007812 20.003906 C 39.800781 20.003906 38.015625 21.792969 38.015625 24 C 38.015625 26.210938 39.800781 28 42.007812 28 C 44.210938 28 46 26.210938 46 24 C 46 21.792969 44.210938 20.003906 42.007812 20.003906 Z M 31.503906 11 C 29.574219 11 28.011719 12.566406 28.011719 14.5 C 28.011719 16.433594 29.574219 18 31.503906 18 C 33.433594 18 35 16.433594 35 14.5 C 35 12.566406 33.433594 11 31.503906 11 Z M 31.503906 30 C 29.574219 30 28.011719 31.566406 28.011719 33.5 C 28.011719 35.433594 29.574219 37 31.503906 37 C 33.433594 37 35 35.433594 35 33.5 C 35 31.566406 33.433594 30 31.503906 30 Z M 21.996094 30.5 C 20.339844 30.5 19 31.84375 19 33.5 C 19 35.15625 20.339844 36.5 21.996094 36.5 C 23.652344 36.5 24.992188 35.15625 24.992188 33.5 C 24.992188 31.84375 23.652344 30.5 21.996094 30.5 Z M 21.996094 38.964844 C 20.339844 38.964844 18.996094 40.316406 18.996094 41.980469 C 18.996094 43.648438 20.339844 45 21.996094 45 C 23.65625 45 25 43.648438 25 41.980469 C 25 40.316406 23.65625 38.964844 21.996094 38.964844 Z M 22.003906 20.964844 C 20.347656 20.964844 19.007812 22.308594 19.007812 23.964844 C 19.007812 25.621094 20.347656 26.964844 22.003906 26.964844 C 23.660156 26.964844 25 25.621094 25 23.964844 C 25 22.308594 23.660156 20.964844 22.003906 20.964844 Z M 13.5 21.5 C 12.121094 21.5 11 22.621094 11 24 C 11 25.378906 12.121094 26.5 13.5 26.5 C 14.878906 26.5 16 25.378906 16 24 C 16 22.621094 14.878906 21.5 13.5 21.5 Z M 13.5 31 C 12.121094 31 11 32.121094 11 33.5 C 11 34.878906 12.121094 36 13.5 36 C 14.878906 36 16 34.878906 16 33.5 C 16 32.121094 14.878906 31 13.5 31 Z M 13.5 12 C 12.121094 12 11 13.121094 11 14.5 C 11 15.878906 12.121094 17 13.5 17 C 14.878906 17 16 15.878906 16 14.5 C 16 13.121094 14.878906 12 13.5 12 Z M 6 22 C 4.894531 22 4 22.894531 4 24 C 4 25.105469 4.894531 26 6 26 C 7.105469 26 8 25.105469 8 24 C 8 22.894531 7.105469 22 6 22 Z M 6 22 "/>
</g>
</svg>
